<svg width="25" height="25" viewBox="0 0 25 25" fill="none" xmlns="http://www.w3.org/2000/svg">
<path fill-rule="evenodd" clip-rule="evenodd" d="M24.6096 12.5407C24.617 12.5351 24.6243 12.5295 24.6315 12.5237C24.6315 12.5201 24.6315 12.5166 24.6315 12.513C24.6316 12.5099 24.6316 12.5067 24.6317 12.5036C24.629 12.5018 24.6263 12.5001 24.6235 12.4984C24.6178 12.4949 24.612 12.4914 24.6074 12.4867C24.1732 12.0524 23.7391 11.618 23.305 11.1836C22.8694 10.7477 22.4338 10.3118 21.9982 9.876C21.9812 9.85903 21.9626 9.84363 21.9504 9.83345C21.9463 9.83004 21.9429 9.82722 21.9405 9.82512L19.2522 12.5132L21.9394 15.2004C21.9452 15.1948 21.9516 15.1887 21.9584 15.1822C21.9763 15.165 21.997 15.1451 22.0174 15.1248C22.26 14.8822 22.5026 14.6396 22.7452 14.3971C23.3513 13.791 23.9575 13.1849 24.5638 12.579C24.5778 12.565 24.5937 12.5529 24.6096 12.5407ZM5.23888 7.86544L7.93664 10.5629L12.6044 5.89536L17.2773 10.5682C17.4098 10.4657 19.9372 7.92664 19.9674 7.87232L12.5944 0.5C12.4874 0.5816 5.26928 7.81112 5.23888 7.86544ZM12.6 19.1178L7.92696 14.4449C7.02096 15.3482 6.12216 16.2443 5.23496 17.1291L12.6058 24.5L19.9754 17.1307L17.2837 14.4424L16.757 14.9689L16.2391 15.4868L15.7212 16.0047L15.2033 16.5226L14.6782 17.0476L14.1603 17.5655L13.6424 18.0834C13.5906 18.1352 13.5388 18.1871 13.4871 18.239C13.3664 18.36 13.2457 18.481 13.1242 18.6011C13.0695 18.6553 13.0153 18.7101 12.961 18.7651C12.8441 18.8834 12.7265 19.0025 12.6 19.1178ZM9.88416 12.507L12.6054 15.2281L15.324 12.5095L12.6029 9.7884L9.88416 12.507ZM3.27896 9.82673L0.603836 12.5018L3.28216 15.1801L5.95696 12.5047L3.27896 9.82673Z" fill="#F4B92E"/>
</svg>
