<svg width="34" height="35" viewBox="0 0 34 35" fill="none" xmlns="http://www.w3.org/2000/svg">
<rect width="33.4643" height="35" rx="10.5814" fill="url(#paint0_linear_11_217)" fill-opacity="0.2"/>
<path fill-rule="evenodd" clip-rule="evenodd" d="M17.4192 19.2969C17.3166 19.0168 17.0474 18.8163 16.7321 18.8163C16.4169 18.8163 16.1476 19.0168 16.0451 19.2969L16.7321 19.7877L17.4192 19.2969ZM16.7321 22.7837C16.6042 22.8984 16.4592 22.9925 16.3023 23.0625L16.4291 23.5697H17.0352L17.162 23.0625C17.0051 22.9925 16.8601 22.8984 16.7321 22.7837ZM22.7996 12.3543C22.8266 12.3287 22.8536 12.303 22.8801 12.2765C24.0225 11.1341 24.254 9.51354 23.3972 8.65681C22.5405 7.80007 20.9199 8.03156 19.7776 9.1739C19.7486 9.20282 19.7205 9.23218 19.6928 9.26169C21.0389 9.91974 22.1355 11.0116 22.7996 12.3543ZM13.7715 9.26169C13.7437 9.23199 13.7155 9.20273 13.6868 9.1739C12.5444 8.03152 10.9238 7.80003 10.0671 8.65677C9.21032 9.51351 9.44181 11.1341 10.5842 12.2765C10.6107 12.303 10.6377 12.3287 10.6647 12.3543C11.3287 11.0116 12.4254 9.91974 13.7715 9.26169ZM10.4424 24.8292C10.5338 24.9022 10.6269 24.9732 10.7215 25.042C12.3338 26.2147 14.4685 26.8605 16.7322 26.8605C18.9958 26.8605 21.1305 26.2147 22.7428 25.042C22.8374 24.9732 22.9305 24.9022 23.0219 24.8292C22.3281 22.4779 20.4626 20.6607 18.1429 20.128L17.2806 20.744V21.5586C17.2806 21.8611 17.5267 22.1071 17.8291 22.1071C18.1315 22.1071 18.3775 21.8611 18.3775 21.5586C18.3775 21.2557 18.6231 21.0102 18.926 21.0102C19.2289 21.0102 19.4745 21.2557 19.4745 21.5586C19.4745 22.3122 18.9651 22.9487 18.2726 23.1428L17.9955 24.2512C17.9658 24.3699 17.8974 24.4752 17.801 24.5505C17.7045 24.6257 17.5857 24.6666 17.4634 24.6666H16.0009C15.8786 24.6666 15.7597 24.6257 15.6633 24.5504C15.5669 24.4752 15.4984 24.3698 15.4688 24.2512L15.1917 23.1428C14.4992 22.9487 13.9898 22.3122 13.9898 21.5586C13.9898 21.2557 14.2354 21.0102 14.5383 21.0102C14.8412 21.0102 15.0868 21.2557 15.0868 21.5586C15.0868 21.8611 15.3328 22.1071 15.6352 22.1071C15.9376 22.1071 16.1837 21.8611 16.1837 21.5586V20.744L15.3214 20.1281C13.0018 20.6607 11.1362 22.4779 10.4424 24.8292ZM14.9639 19.0833C13.5848 19.4198 12.3197 20.1496 11.2944 21.2195C10.5242 22.0234 9.9385 22.968 9.5594 23.9974C8.63557 22.9608 8.13953 21.7428 8.13953 20.4617C8.13953 18.5998 9.20118 16.8589 11.0647 15.645V15.3427C11.0647 12.2177 13.6071 9.67523 16.7321 9.67523C19.8572 9.67523 22.3996 12.2177 22.3996 15.3427V15.645C24.2631 16.8589 25.3248 18.5998 25.3248 20.4617C25.3248 21.7428 24.8287 22.9608 23.9049 23.9974C23.5258 22.968 22.9401 22.0234 22.1698 21.2195C21.1445 20.1496 19.8795 19.4198 18.5004 19.0833C18.2944 18.2994 17.5799 17.7194 16.7321 17.7194C15.8844 17.7194 15.1699 18.2994 14.9639 19.0833ZM19.2916 14.7942C18.9888 14.7942 18.7432 15.0398 18.7432 15.3427V16.4396C18.7432 16.7425 18.9888 16.9881 19.2916 16.9881C19.5945 16.9881 19.8401 16.7425 19.8401 16.4396V15.3427C19.8401 15.0398 19.5945 14.7942 19.2916 14.7942ZM14.1726 14.7942C13.8697 14.7942 13.6242 15.0398 13.6242 15.3427V16.4396C13.6242 16.7425 13.8697 16.9881 14.1726 16.9881C14.4755 16.9881 14.7211 16.7425 14.7211 16.4396V15.3427C14.7211 15.0398 14.4755 14.7942 14.1726 14.7942Z" fill="white"/>
<defs>
<linearGradient id="paint0_linear_11_217" x1="16.7321" y1="0" x2="16.7321" y2="35" gradientUnits="userSpaceOnUse">
<stop stop-color="white" stop-opacity="0.3"/>
<stop offset="1" stop-color="#4E4949"/>
</linearGradient>
</defs>
</svg>
